<svg xmlns="http://www.w3.org/2000/svg" width="43" height="44" viewBox="0 0 43 44" fill="none">
  <path d="M21.6016 30.8912C21.6016 35.8008 25.5816 39.7808 30.4912 39.7808C35.4008 39.7808 39.3808 35.8008 39.3808 30.8912C39.3808 25.9816 35.4008 22.0016 30.4912 22.0016C25.5816 22.0016 21.6016 25.9816 21.6016 30.8912ZM21.6016 30.8912C21.6016 28.8896 22.2632 27.0425 23.3796 25.5566V9.55623M21.6016 30.8912C21.6016 32.3586 21.9572 33.743 22.5868 34.9629C21.089 36.2281 17.6295 37.1139 13.601 37.1139C8.20048 37.1139 3.82248 35.5219 3.82248 33.5581V9.55623M23.3796 9.55623C23.3796 11.5201 19.0016 13.1121 13.601 13.1121C8.20048 13.1121 3.82248 11.5201 3.82248 9.55623M23.3796 9.55623C23.3796 7.5924 19.0016 6.0004 13.601 6.0004C8.20048 6.0004 3.82248 7.5924 3.82248 9.55623M3.82248 25.5575C3.82248 27.5213 8.20048 29.1133 13.601 29.1133C17.4929 29.1133 20.8537 28.2865 22.4277 27.0897M23.3796 17.5569C23.3796 19.5207 19.0016 21.1127 13.601 21.1127C8.20048 21.1127 3.82248 19.5207 3.82248 17.5569" stroke="white" stroke-width="2" stroke-linecap="round" stroke-linejoin="round"/>
</svg>