<svg xmlns="http://www.w3.org/2000/svg" width="24" height="24" viewBox="0 0 24 24" fill="none">
  <path d="M15 11.9995C15 10.3427 13.6569 8.99951 12 8.99951C10.3431 8.99951 9 10.3427 9 11.9995C9 13.6564 10.3431 14.9995 12 14.9995C13.6569 14.9995 15 13.6564 15 11.9995Z" stroke="#667085" stroke-width="1.66667" stroke-linecap="round" stroke-linejoin="round"/>
  <path d="M19.3711 14.7104L20.6856 14.126C21.0768 13.9522 21.4093 13.6687 21.6426 13.3098C21.8759 12.9508 22.0001 12.5319 22 12.1038C22.0001 11.6756 21.8759 11.2567 21.6426 10.8978C21.4093 10.5388 21.0768 10.2553 20.6856 10.0815L19.3711 9.49709C18.9047 9.28905 18.5159 8.93909 18.26 8.49709C18.0034 8.05231 17.8941 7.53776 17.9478 7.02709L18.1 5.59709C18.145 5.17142 18.0656 4.74183 17.8713 4.36041C17.6771 3.97898 17.3763 3.66211 17.0056 3.4482C16.635 3.23402 16.2103 3.13199 15.7829 3.15447C15.3555 3.17696 14.9438 3.323 14.5978 3.57487L13.4344 4.42154C13.0171 4.72302 12.5148 4.8841 12 4.88154C11.4866 4.88163 10.9864 4.71903 10.5711 4.41709L9.40778 3.57043C9.06175 3.31855 8.65007 3.17251 8.22267 3.15003C7.79528 3.12754 7.37054 3.22958 7 3.44376C6.62923 3.65766 6.32849 3.97454 6.13423 4.35596C5.93996 4.73739 5.86053 5.16698 5.90555 5.59265L6.05778 7.02265C6.11141 7.53332 6.00212 8.04786 5.74556 8.49265C5.48825 8.93552 5.09736 9.28558 4.62889 9.49265L3.31444 10.0815C2.92317 10.2553 2.59071 10.5388 2.3574 10.8978C2.12408 11.2567 1.99993 11.6756 2 12.1038C1.99993 12.5319 2.12408 12.9508 2.3574 13.3098C2.59071 13.6687 2.92317 13.9522 3.31444 14.126L4.62889 14.7104C5.09736 14.9175 5.48825 15.2676 5.74556 15.7104C6.00212 16.1552 6.11141 16.6698 6.05778 17.1804L5.90556 18.6149C5.86053 19.0405 5.93997 19.4701 6.13423 19.8516C6.32849 20.233 6.62923 20.5499 7 20.7638C7.37054 20.9779 7.79528 21.08 8.22267 21.0575C8.65007 21.035 9.06175 20.889 9.40778 20.6371L10.5711 19.7904C10.9864 19.4885 11.4866 19.3259 12 19.326C12.5134 19.3259 13.0137 19.4885 13.4289 19.7904L14.5922 20.6371C14.9382 20.889 15.3499 21.035 15.7773 21.0575C16.2047 21.08 16.6295 20.9779 17 20.7638C17.3706 20.5496 17.6712 20.2327 17.8654 19.8514C18.0596 19.47 18.1392 19.0405 18.0944 18.6149L17.9422 17.1849C17.8886 16.6742 17.9979 16.1597 18.2544 15.7149C18.511 15.2703 18.902 14.9187 19.3711 14.7104Z" stroke="#667085" stroke-width="1.66667" stroke-linecap="round" stroke-linejoin="round"/>
</svg>