<svg xmlns="http://www.w3.org/2000/svg" width="16" height="16" viewBox="0 0 16 16" fill="none">
  <path fill-rule="evenodd" clip-rule="evenodd" d="M3 0C1.34315 0 0 1.34315 0 3V13C0 14.6569 1.34315 16 3 16H13C14.6569 16 16 14.6569 16 13V3C16 1.34315 14.6569 0 13 0H3ZM8.69485 1.59926C7.59028 1.59926 6.69485 2.4947 6.69485 3.59927V12.3993C6.69485 13.5038 7.59028 14.3993 8.69485 14.3993H12.4039C13.5085 14.3993 14.4039 13.5038 14.4039 12.3993V3.59926C14.4039 2.4947 13.5085 1.59926 12.4039 1.59926H8.69485Z" fill="#FCFCFD"/>
</svg>