<svg xmlns="http://www.w3.org/2000/svg" width="24" height="24" viewBox="0 0 24 24" fill="none">
  <path d="M8.00001 8L4.50067 8C3.66893 8 3.25306 8 2.99748 8.17521C2.77419 8.32829 2.62251 8.56536 2.57709 8.83224C2.52511 9.13772 2.69938 9.51531 3.04793 10.2705L7.142 19.141C7.45285 19.8145 7.60828 20.1512 7.84933 20.3979C8.06243 20.6159 8.32256 20.7824 8.60984 20.8845C8.9348 21 9.30569 21 10.0475 21L15 21M14.5 7.5L14.5 7.49M11.2 21L17.8 21C18.9201 21 19.4802 21 19.908 20.782C20.2843 20.5903 20.5903 20.2843 20.782 19.908C21 19.4802 21 18.9201 21 17.8L21 6.2C21 5.07989 21 4.51984 20.782 4.09202C20.5903 3.7157 20.2843 3.40973 19.908 3.21799C19.4802 3 18.9201 3 17.8 3L11.2 3C10.0799 3 9.51985 3 9.09203 3.21799C8.71571 3.40973 8.40975 3.71569 8.218 4.09202C8.00001 4.51984 8.00001 5.07989 8.00001 6.2L8.00001 17.8C8.00001 18.9201 8.00001 19.4802 8.218 19.908C8.40974 20.2843 8.71571 20.5903 9.09203 20.782C9.51985 21 10.0799 21 11.2 21ZM14.5 7C14.7762 7 15 7.22386 15 7.5C15 7.77614 14.7762 8 14.5 8C14.2239 8 14 7.77614 14 7.5C14 7.22386 14.2239 7 14.5 7Z" stroke="#667085" stroke-width="1.66667" stroke-linecap="round" stroke-linejoin="round"/>
</svg>