<svg xmlns="http://www.w3.org/2000/svg" width="24" height="24" viewBox="0 0 24 24" fill="none">
  <path d="M12 2C6.47717 2 2 6.47717 2 12C2 17.5228 6.47717 22 12 22C17.5202 21.9937 21.9937 17.5202 22 12C22 6.47717 17.5228 2 12 2ZM8.66162 3.64691C7.6134 4.7984 6.81042 6.49036 6.37213 8.5H3.70612C4.63928 6.29138 6.43176 4.53906 8.66162 3.64691ZM3 12C3 11.1315 3.1297 10.2946 3.35925 9.5H6.18927C6.07001 10.298 6 11.132 6 12C6 12.868 6.07001 13.702 6.18927 14.5H3.35925C3.1297 13.7054 3 12.8685 3 12ZM3.70612 15.5H6.37213C6.81042 17.5096 7.6134 19.2016 8.66162 20.3531C6.43176 19.4609 4.63928 17.7086 3.70612 15.5ZM11.5 20.9544C9.64899 20.622 8.09161 18.4655 7.39355 15.5H11.5V20.9544ZM11.5 14.5H7.20032C7.07233 13.7052 7 12.8681 7 12C7 11.1319 7.07233 10.2948 7.20032 9.5H11.5V14.5ZM11.5 8.5H7.39355C8.09161 5.53448 9.64899 3.37799 11.5 3.04559V8.5ZM20.2906 8.5H17.6279C17.1902 6.49353 16.3893 4.80341 15.3434 3.65204C17.5685 4.54572 19.3572 6.29547 20.2906 8.5ZM12.5 3.04559C14.351 3.37799 15.9084 5.53448 16.6064 8.5H12.5V3.04559ZM12.5 9.5H16.7997C16.9277 10.2948 17 11.1319 17 12C17 12.8681 16.9277 13.7052 16.7997 14.5H12.5V9.5ZM12.5 20.9544V15.5H16.6064C15.9084 18.4655 14.351 20.622 12.5 20.9544ZM15.3384 20.3531C16.3866 19.2016 17.1896 17.5096 17.6279 15.5H20.2939C19.3607 17.7086 17.5682 19.4609 15.3384 20.3531ZM17.8107 14.5C17.93 13.702 18 12.868 18 12C18 11.132 17.93 10.298 17.8107 9.5H20.6382C20.8685 10.2945 20.999 11.1315 21 12C21 12.8685 20.8703 13.7054 20.6407 14.5H17.8107Z" fill="white"/>
</svg>